<svg xmlns="http://www.w3.org/2000/svg" version="1.0" preserveAspectRatio="xMidYMid meet" viewBox="67.14 155.3 300.81 191.64"><g transform="translate(0.000000,500.000000) scale(0.100000,-0.100000)" fill="#000000" stroke="none"><path d="M2385 3439 c-97 -57 -155 -220 -155 -440 0 -92 20 -233 54 -374 13 -55 31 -134 41 -175 10 -41 33 -135 52 -207 l35 -133 -56 -62 c-52 -59 -69 -99 -47 -112 5 -3 42 14 83 39 42 25 87 45 101 45 17 0 32 9 42 24 18 27 59 49 270 141 82 36 152 62 155 57 8 -8 27 -101 49 -232 13 -78 19 -95 35 -98 18 -4 19 1 13 79 -3 46 -15 120 -26 164 -31 121 -34 115 68 164 121 58 205 115 220 147 19 42 -1 49 -40 13 -43 -40 -251 -144 -509 -254 -113 -48 -220 -96 -238 -107 -18 -11 -35 -18 -38 -15 -8 7 57 54 261 187 105 68 217 145 250 170 33 26 71 53 84 59 13 7 80 57 150 110 69 54 176 130 236 170 129 85 160 113 186 163 22 43 25 131 6 165 -35 62 -124 89 -272 80 -107 -6 -214 -39 -318 -98 l-72 -41 -25 34 c-85 114 -289 274 -407 318 -69 26 -160 35 -188 19z m243 -89 c71 -36 118 -68 174 -122 83 -78 158 -166 158 -184 0 -6 -14 -26 -31 -45 -51 -57 -119 -219 -92 -219 5 0 29 38 53 85 24 47 57 97 72 112 l27 26 12 -29 c6 -16 12 -50 11 -76 0 -38 -6 -54 -31 -85 -36 -43 -38 -53 -13 -53 27 0 48 27 68 89 16 51 17 59 1 115 -15 57 -14 62 1 74 36 29 172 91 233 108 86 23 228 23 294 1 67 -24 89 -55 80 -113 -8 -54 -43 -97 -122 -150 -171 -113 -215 -143 -286 -199 -43 -33 -105 -78 -136 -100 -32 -22 -82 -59 -112 -83 -30 -23 -94 -69 -144 -100 -49 -32 -110 -71 -135 -88 -25 -16 -56 -34 -70 -40 -14 -6 -59 -36 -100 -68 -41 -31 -80 -56 -86 -56 -12 0 -15 8 -44 115 -10 39 -25 95 -34 125 -8 30 -21 75 -27 100 -6 25 -17 68 -24 95 -18 63 -32 148 -49 294 -16 126 -7 288 20 363 8 22 14 48 14 57 0 17 73 94 100 105 39 15 123 -6 218 -54z"></path><path d="M3592 2578 c-7 -7 -12 -20 -12 -29 0 -16 -3 -17 -33 -4 -26 11 -37 11 -45 3 -20 -20 -14 -30 50 -89 47 -44 66 -55 75 -47 14 11 16 69 5 132 -8 42 -21 53 -40 34z"></path><path d="M3463 2386 c-5 -9 -5 -55 -1 -104 9 -102 15 -132 28 -132 23 0 28 38 17 139 -12 101 -25 131 -44 97z"></path><path d="M3215 2327 c-25 -14 -41 -31 -43 -45 -4 -28 16 -29 60 -2 34 21 68 26 68 12 0 -5 -13 -27 -29 -49 -16 -22 -37 -55 -46 -73 -15 -30 -15 -34 -1 -48 10 -10 19 -13 25 -7 22 24 113 214 107 224 -12 20 -98 12 -141 -12z"></path><path d="M2155 2158 c-16 -12 -79 -57 -138 -101 -117 -85 -198 -126 -347 -176 -108 -35 -332 -103 -400 -120 -25 -6 -74 -19 -110 -28 -178 -44 -222 -56 -345 -93 -110 -34 -140 -51 -143 -83 -4 -34 12 -35 76 -4 50 25 82 35 292 91 438 117 682 191 790 240 59 26 148 80 236 143 149 108 170 126 159 143 -10 16 -37 11 -70 -12z"></path><path d="M2200 1975 c-8 -10 -11 -30 -7 -60 l7 -44 -41 2 c-32 1 -44 -3 -55 -18 -8 -12 -10 -26 -5 -33 9 -15 152 -37 176 -28 17 6 20 47 4 63 -6 6 -18 37 -28 69 -20 63 -31 73 -51 49z"></path></g></svg>